<mxfile host="app.diagrams.net" modified="2022-06-05T12:19:58.414Z" agent="5.0 (Macintosh; Intel Mac OS X 10_15_7) AppleWebKit/537.36 (KHTML, like Gecko) Chrome/101.0.4951.41 Safari/537.36 Edg/101.0.1210.32" etag="OkZki9yx-RrMSx2cNWRt" version="18.1.3" type="github">
  <diagram id="A-Fklpi1MD4yL5sBYjJQ" name="Page-1">
    <mxGraphModel dx="1559" dy="1241" grid="1" gridSize="10" guides="1" tooltips="1" connect="1" arrows="1" fold="1" page="1" pageScale="1" pageWidth="827" pageHeight="1169" math="0" shadow="0">
      <root>
        <mxCell id="0" />
        <mxCell id="1" parent="0" />
        <mxCell id="gLHAoLvfhU_PLy0aobL0-1" value="&lt;font style=&quot;font-size: 50px;&quot;&gt;系统架构&lt;/font&gt;" style="swimlane;html=1;childLayout=stackLayout;startSize=80;rounded=0;shadow=0;labelBackgroundColor=none;strokeWidth=1;fontFamily=Verdana;fontSize=8;align=center;" parent="1" vertex="1">
          <mxGeometry x="970" y="560" width="1940" height="1210" as="geometry">
            <mxRectangle x="1040" width="60" height="20" as="alternateBounds" />
          </mxGeometry>
        </mxCell>
        <mxCell id="gLHAoLvfhU_PLy0aobL0-2" value="&lt;font style=&quot;font-size: 36px;&quot;&gt;设备&lt;/font&gt;" style="swimlane;html=1;startSize=60;" parent="gLHAoLvfhU_PLy0aobL0-1" vertex="1">
          <mxGeometry y="80" width="440" height="1130" as="geometry">
            <mxRectangle x="160" y="20" width="30" height="730" as="alternateBounds" />
          </mxGeometry>
        </mxCell>
        <mxCell id="gLHAoLvfhU_PLy0aobL0-3" value="&lt;font style=&quot;font-size: 24px;&quot;&gt;输出&lt;/font&gt;" style="rounded=1;whiteSpace=wrap;html=1;align=center;fillColor=default;strokeColor=default;" parent="gLHAoLvfhU_PLy0aobL0-2" vertex="1">
          <mxGeometry x="70" y="670" width="140" height="80" as="geometry" />
        </mxCell>
        <mxCell id="gLHAoLvfhU_PLy0aobL0-4" style="edgeStyle=orthogonalEdgeStyle;rounded=0;orthogonalLoop=1;jettySize=auto;html=1;entryX=0.5;entryY=1;entryDx=0;entryDy=0;fontSize=28;fillColor=#d5e8d4;strokeColor=default;strokeWidth=5;" parent="gLHAoLvfhU_PLy0aobL0-2" source="gLHAoLvfhU_PLy0aobL0-5" target="gLHAoLvfhU_PLy0aobL0-3" edge="1">
          <mxGeometry relative="1" as="geometry" />
        </mxCell>
        <mxCell id="gLHAoLvfhU_PLy0aobL0-5" value="&lt;font style=&quot;font-size: 24px&quot;&gt;传感数据&lt;/font&gt;" style="rounded=1;whiteSpace=wrap;html=1;align=center;" parent="gLHAoLvfhU_PLy0aobL0-2" vertex="1">
          <mxGeometry x="70" y="860" width="140" height="80" as="geometry" />
        </mxCell>
        <mxCell id="gLHAoLvfhU_PLy0aobL0-10" value="&lt;font style=&quot;font-size: 36px;&quot;&gt;前端界面&lt;/font&gt;" style="swimlane;html=1;startSize=60;swimlaneLine=1;glass=0;shadow=0;arcSize=15;" parent="gLHAoLvfhU_PLy0aobL0-1" vertex="1">
          <mxGeometry x="440" y="80" width="300" height="1130" as="geometry">
            <mxRectangle x="160" y="20" width="30" height="730" as="alternateBounds" />
          </mxGeometry>
        </mxCell>
        <mxCell id="gLHAoLvfhU_PLy0aobL0-13" value="&lt;font style=&quot;font-size: 24px;&quot;&gt;用户输出&lt;/font&gt;" style="rounded=1;whiteSpace=wrap;html=1;fontSize=28;fillColor=#FFFFFF;strokeColor=#000000;" parent="gLHAoLvfhU_PLy0aobL0-10" vertex="1">
          <mxGeometry x="65" y="840" width="150" height="80" as="geometry" />
        </mxCell>
        <mxCell id="gLHAoLvfhU_PLy0aobL0-69" value="" style="edgeStyle=orthogonalEdgeStyle;rounded=0;orthogonalLoop=1;jettySize=auto;html=1;fontSize=24;strokeColor=default;strokeWidth=5;" parent="gLHAoLvfhU_PLy0aobL0-10" source="gLHAoLvfhU_PLy0aobL0-65" target="gLHAoLvfhU_PLy0aobL0-68" edge="1">
          <mxGeometry relative="1" as="geometry" />
        </mxCell>
        <mxCell id="gLHAoLvfhU_PLy0aobL0-65" value="&lt;span style=&quot;font-size: 24px;&quot;&gt;设备外设状态信息&lt;/span&gt;" style="rounded=1;whiteSpace=wrap;html=1;fontSize=28;fillColor=#FFFFFF;strokeColor=#000000;" parent="gLHAoLvfhU_PLy0aobL0-10" vertex="1">
          <mxGeometry x="65" y="440" width="150" height="80" as="geometry" />
        </mxCell>
        <mxCell id="gLHAoLvfhU_PLy0aobL0-68" value="&lt;span style=&quot;font-size: 24px;&quot;&gt;更新用户界面&lt;/span&gt;" style="rounded=1;whiteSpace=wrap;html=1;fontSize=28;fillColor=#FFFFFF;strokeColor=#000000;" parent="gLHAoLvfhU_PLy0aobL0-10" vertex="1">
          <mxGeometry x="65" y="580" width="150" height="80" as="geometry" />
        </mxCell>
        <mxCell id="dDn0zIui6dqxGOIMlOnd-4" value="&lt;span style=&quot;font-size: 24px;&quot;&gt;传感模型配置信息&lt;/span&gt;" style="rounded=1;whiteSpace=wrap;html=1;align=center;" parent="gLHAoLvfhU_PLy0aobL0-10" vertex="1">
          <mxGeometry x="70" y="90" width="140" height="80" as="geometry" />
        </mxCell>
        <mxCell id="dDn0zIui6dqxGOIMlOnd-8" value="&lt;span style=&quot;font-size: 24px&quot;&gt;响应信息&lt;/span&gt;" style="rounded=1;whiteSpace=wrap;html=1;align=center;" parent="gLHAoLvfhU_PLy0aobL0-10" vertex="1">
          <mxGeometry x="70" y="220" width="140" height="80" as="geometry" />
        </mxCell>
        <mxCell id="gLHAoLvfhU_PLy0aobL0-19" style="edgeStyle=orthogonalEdgeStyle;rounded=0;orthogonalLoop=1;jettySize=auto;html=1;fillColor=#d5e8d4;strokeColor=#000000;strokeWidth=5;" parent="gLHAoLvfhU_PLy0aobL0-1" source="gLHAoLvfhU_PLy0aobL0-56" target="gLHAoLvfhU_PLy0aobL0-31" edge="1">
          <mxGeometry relative="1" as="geometry">
            <Array as="points">
              <mxPoint x="1765" y="1090" />
            </Array>
          </mxGeometry>
        </mxCell>
        <mxCell id="gLHAoLvfhU_PLy0aobL0-20" style="edgeStyle=orthogonalEdgeStyle;rounded=0;orthogonalLoop=1;jettySize=auto;html=1;entryX=1;entryY=0.5;entryDx=0;entryDy=0;exitX=0;exitY=0.5;exitDx=0;exitDy=0;fillColor=#d5e8d4;strokeColor=#000000;strokeWidth=5;" parent="gLHAoLvfhU_PLy0aobL0-1" source="gLHAoLvfhU_PLy0aobL0-31" target="gLHAoLvfhU_PLy0aobL0-25" edge="1">
          <mxGeometry relative="1" as="geometry">
            <mxPoint x="680" y="600" as="sourcePoint" />
          </mxGeometry>
        </mxCell>
        <mxCell id="gLHAoLvfhU_PLy0aobL0-21" style="edgeStyle=orthogonalEdgeStyle;rounded=0;orthogonalLoop=1;jettySize=auto;html=1;exitX=0;exitY=0.5;exitDx=0;exitDy=0;strokeWidth=5;fillColor=#d5e8d4;strokeColor=#000000;" parent="gLHAoLvfhU_PLy0aobL0-1" source="gLHAoLvfhU_PLy0aobL0-25" target="gLHAoLvfhU_PLy0aobL0-5" edge="1">
          <mxGeometry relative="1" as="geometry" />
        </mxCell>
        <mxCell id="gLHAoLvfhU_PLy0aobL0-23" value="" style="edgeStyle=orthogonalEdgeStyle;rounded=0;orthogonalLoop=1;jettySize=auto;html=1;fontSize=28;fillColor=#d5e8d4;strokeColor=#000000;strokeWidth=5;" parent="gLHAoLvfhU_PLy0aobL0-1" source="gLHAoLvfhU_PLy0aobL0-3" target="gLHAoLvfhU_PLy0aobL0-26" edge="1">
          <mxGeometry relative="1" as="geometry" />
        </mxCell>
        <mxCell id="gLHAoLvfhU_PLy0aobL0-42" style="edgeStyle=orthogonalEdgeStyle;rounded=0;orthogonalLoop=1;jettySize=auto;html=1;entryX=0;entryY=0.5;entryDx=0;entryDy=0;strokeWidth=5;fillColor=#d5e8d4;strokeColor=#000000;" parent="gLHAoLvfhU_PLy0aobL0-1" source="gLHAoLvfhU_PLy0aobL0-26" target="gLHAoLvfhU_PLy0aobL0-33" edge="1">
          <mxGeometry relative="1" as="geometry" />
        </mxCell>
        <mxCell id="gLHAoLvfhU_PLy0aobL0-44" style="edgeStyle=orthogonalEdgeStyle;rounded=0;orthogonalLoop=1;jettySize=auto;html=1;entryX=0;entryY=0.5;entryDx=0;entryDy=0;strokeWidth=5;fillColor=#d5e8d4;strokeColor=#000000;" parent="gLHAoLvfhU_PLy0aobL0-1" source="gLHAoLvfhU_PLy0aobL0-26" target="gLHAoLvfhU_PLy0aobL0-34" edge="1">
          <mxGeometry relative="1" as="geometry" />
        </mxCell>
        <mxCell id="gLHAoLvfhU_PLy0aobL0-45" style="edgeStyle=orthogonalEdgeStyle;rounded=0;orthogonalLoop=1;jettySize=auto;html=1;entryX=1;entryY=0.5;entryDx=0;entryDy=0;strokeWidth=5;fillColor=#d5e8d4;strokeColor=#000000;" parent="gLHAoLvfhU_PLy0aobL0-1" source="gLHAoLvfhU_PLy0aobL0-34" target="gLHAoLvfhU_PLy0aobL0-13" edge="1">
          <mxGeometry relative="1" as="geometry">
            <Array as="points">
              <mxPoint x="1305" y="910" />
            </Array>
          </mxGeometry>
        </mxCell>
        <mxCell id="gLHAoLvfhU_PLy0aobL0-63" style="edgeStyle=orthogonalEdgeStyle;rounded=0;orthogonalLoop=1;jettySize=auto;html=1;entryX=0;entryY=0.5;entryDx=0;entryDy=0;fontSize=24;strokeColor=default;strokeWidth=5;" parent="gLHAoLvfhU_PLy0aobL0-1" source="gLHAoLvfhU_PLy0aobL0-26" target="gLHAoLvfhU_PLy0aobL0-62" edge="1">
          <mxGeometry relative="1" as="geometry" />
        </mxCell>
        <mxCell id="gLHAoLvfhU_PLy0aobL0-66" style="edgeStyle=orthogonalEdgeStyle;rounded=0;orthogonalLoop=1;jettySize=auto;html=1;fontSize=24;strokeColor=default;strokeWidth=5;" parent="gLHAoLvfhU_PLy0aobL0-1" source="gLHAoLvfhU_PLy0aobL0-62" target="gLHAoLvfhU_PLy0aobL0-65" edge="1">
          <mxGeometry relative="1" as="geometry">
            <Array as="points">
              <mxPoint x="1305" y="460" />
            </Array>
          </mxGeometry>
        </mxCell>
        <mxCell id="fcsT_xezd7ks8MUViqKk-1" style="edgeStyle=orthogonalEdgeStyle;rounded=0;orthogonalLoop=1;jettySize=auto;html=1;entryX=0.5;entryY=0;entryDx=0;entryDy=0;fontSize=42;startSize=80;strokeWidth=5;" parent="gLHAoLvfhU_PLy0aobL0-1" source="gLHAoLvfhU_PLy0aobL0-33" target="gLHAoLvfhU_PLy0aobL0-56" edge="1">
          <mxGeometry relative="1" as="geometry" />
        </mxCell>
        <mxCell id="gLHAoLvfhU_PLy0aobL0-24" value="&lt;font style=&quot;font-size: 36px;&quot;&gt;设备控制中心&lt;/font&gt;" style="swimlane;html=1;startSize=60;" parent="gLHAoLvfhU_PLy0aobL0-1" vertex="1">
          <mxGeometry x="740" y="80" width="300" height="1130" as="geometry" />
        </mxCell>
        <mxCell id="gLHAoLvfhU_PLy0aobL0-25" value="&lt;font style=&quot;font-size: 24px&quot;&gt;传感数据&lt;/font&gt;" style="rounded=1;whiteSpace=wrap;html=1;align=center;" parent="gLHAoLvfhU_PLy0aobL0-24" vertex="1">
          <mxGeometry x="80" y="970" width="140" height="80" as="geometry" />
        </mxCell>
        <mxCell id="gLHAoLvfhU_PLy0aobL0-26" value="&lt;span style=&quot;font-size: 24px&quot;&gt;设备输出&lt;/span&gt;" style="rounded=1;whiteSpace=wrap;html=1;align=center;shadow=0;" parent="gLHAoLvfhU_PLy0aobL0-24" vertex="1">
          <mxGeometry x="80" y="670" width="140" height="80" as="geometry" />
        </mxCell>
        <mxCell id="gLHAoLvfhU_PLy0aobL0-29" value="&lt;span style=&quot;font-size: 36px;&quot;&gt;FakeHub&lt;/span&gt;" style="swimlane;html=1;startSize=60;" parent="gLHAoLvfhU_PLy0aobL0-1" vertex="1">
          <mxGeometry x="1040" y="80" width="490" height="1130" as="geometry" />
        </mxCell>
        <mxCell id="gLHAoLvfhU_PLy0aobL0-31" value="&lt;span style=&quot;font-size: 24px&quot;&gt;传感数据&lt;/span&gt;" style="rounded=1;whiteSpace=wrap;html=1;align=center;" parent="gLHAoLvfhU_PLy0aobL0-29" vertex="1">
          <mxGeometry x="195" y="970" width="140" height="80" as="geometry" />
        </mxCell>
        <mxCell id="gLHAoLvfhU_PLy0aobL0-33" value="&lt;span style=&quot;font-size: 24px&quot;&gt;数据请求&lt;/span&gt;" style="rounded=1;whiteSpace=wrap;html=1;align=center;" parent="gLHAoLvfhU_PLy0aobL0-29" vertex="1">
          <mxGeometry x="195" y="670" width="140" height="80" as="geometry" />
        </mxCell>
        <mxCell id="gLHAoLvfhU_PLy0aobL0-34" value="&lt;span style=&quot;font-size: 24px&quot;&gt;用户输出&lt;/span&gt;" style="rounded=1;whiteSpace=wrap;html=1;align=center;" parent="gLHAoLvfhU_PLy0aobL0-29" vertex="1">
          <mxGeometry x="195" y="770" width="140" height="80" as="geometry" />
        </mxCell>
        <mxCell id="gLHAoLvfhU_PLy0aobL0-62" value="&lt;span style=&quot;font-size: 24px&quot;&gt;设备外设状态信息&lt;/span&gt;" style="rounded=1;whiteSpace=wrap;html=1;align=center;" parent="gLHAoLvfhU_PLy0aobL0-29" vertex="1">
          <mxGeometry x="195" y="560" width="140" height="80" as="geometry" />
        </mxCell>
        <mxCell id="dDn0zIui6dqxGOIMlOnd-3" value="&lt;span style=&quot;font-size: 24px;&quot;&gt;传感模型配置信息&lt;/span&gt;" style="rounded=1;whiteSpace=wrap;html=1;align=center;" parent="gLHAoLvfhU_PLy0aobL0-29" vertex="1">
          <mxGeometry x="195" y="90" width="140" height="80" as="geometry" />
        </mxCell>
        <mxCell id="dDn0zIui6dqxGOIMlOnd-7" value="&lt;span style=&quot;font-size: 24px&quot;&gt;响应信息&lt;/span&gt;" style="rounded=1;whiteSpace=wrap;html=1;align=center;" parent="gLHAoLvfhU_PLy0aobL0-29" vertex="1">
          <mxGeometry x="195" y="220" width="140" height="80" as="geometry" />
        </mxCell>
        <mxCell id="gLHAoLvfhU_PLy0aobL0-55" value="&lt;font style=&quot;font-size: 36px;&quot;&gt;虚拟传感后端服务&lt;/font&gt;" style="swimlane;html=1;startSize=60;" parent="gLHAoLvfhU_PLy0aobL0-1" vertex="1">
          <mxGeometry x="1530" y="80" width="410" height="1130" as="geometry" />
        </mxCell>
        <mxCell id="gLHAoLvfhU_PLy0aobL0-56" value="&lt;span style=&quot;font-size: 24px;&quot;&gt;传感数据&lt;/span&gt;" style="rounded=1;whiteSpace=wrap;html=1;align=center;" parent="gLHAoLvfhU_PLy0aobL0-55" vertex="1">
          <mxGeometry x="165" y="830" width="140" height="80" as="geometry" />
        </mxCell>
        <mxCell id="dDn0zIui6dqxGOIMlOnd-6" value="&lt;span style=&quot;font-size: 24px;&quot;&gt;响应信息&lt;/span&gt;" style="rounded=1;whiteSpace=wrap;html=1;align=center;" parent="gLHAoLvfhU_PLy0aobL0-55" vertex="1">
          <mxGeometry x="165" y="220" width="140" height="80" as="geometry" />
        </mxCell>
        <mxCell id="EF9OuTsCMcCaz-aw5gzv-1" value="&lt;span style=&quot;font-size: 24px;&quot;&gt;传感模型配置信息&lt;/span&gt;" style="rounded=1;whiteSpace=wrap;html=1;align=center;" vertex="1" parent="gLHAoLvfhU_PLy0aobL0-55">
          <mxGeometry x="165" y="90" width="140" height="80" as="geometry" />
        </mxCell>
        <mxCell id="dDn0zIui6dqxGOIMlOnd-5" style="edgeStyle=orthogonalEdgeStyle;rounded=0;orthogonalLoop=1;jettySize=auto;html=1;entryX=0;entryY=0.5;entryDx=0;entryDy=0;strokeWidth=5;" parent="gLHAoLvfhU_PLy0aobL0-1" source="dDn0zIui6dqxGOIMlOnd-4" target="dDn0zIui6dqxGOIMlOnd-3" edge="1">
          <mxGeometry relative="1" as="geometry" />
        </mxCell>
        <mxCell id="dDn0zIui6dqxGOIMlOnd-9" style="edgeStyle=orthogonalEdgeStyle;rounded=0;orthogonalLoop=1;jettySize=auto;html=1;entryX=1;entryY=0.5;entryDx=0;entryDy=0;strokeWidth=5;" parent="gLHAoLvfhU_PLy0aobL0-1" source="dDn0zIui6dqxGOIMlOnd-7" target="dDn0zIui6dqxGOIMlOnd-8" edge="1">
          <mxGeometry relative="1" as="geometry" />
        </mxCell>
        <mxCell id="dDn0zIui6dqxGOIMlOnd-11" style="edgeStyle=orthogonalEdgeStyle;rounded=0;orthogonalLoop=1;jettySize=auto;html=1;strokeWidth=5;" parent="gLHAoLvfhU_PLy0aobL0-1" source="dDn0zIui6dqxGOIMlOnd-6" target="dDn0zIui6dqxGOIMlOnd-7" edge="1">
          <mxGeometry relative="1" as="geometry">
            <Array as="points">
              <mxPoint x="1610" y="340" />
              <mxPoint x="1610" y="340" />
            </Array>
          </mxGeometry>
        </mxCell>
        <mxCell id="EF9OuTsCMcCaz-aw5gzv-2" style="edgeStyle=orthogonalEdgeStyle;rounded=0;orthogonalLoop=1;jettySize=auto;html=1;entryX=0;entryY=0.5;entryDx=0;entryDy=0;strokeWidth=5;" edge="1" parent="gLHAoLvfhU_PLy0aobL0-1" source="dDn0zIui6dqxGOIMlOnd-3" target="EF9OuTsCMcCaz-aw5gzv-1">
          <mxGeometry relative="1" as="geometry" />
        </mxCell>
      </root>
    </mxGraphModel>
  </diagram>
</mxfile>
